<?xml version="1.0" standalone="no"?>
<!DOCTYPE svg PUBLIC "-//W3C//DTD SVG 20010904//EN"
 "http://www.w3.org/TR/2001/REC-SVG-20010904/DTD/svg10.dtd">
<svg version="1.0" xmlns="http://www.w3.org/2000/svg"
 width="512.000000pt" height="512.000000pt" viewBox="0 0 512.000000 512.000000"
 preserveAspectRatio="xMidYMid meet">
<metadata>
Created by potrace 1.14, written by Peter Selinger 2001-2017
</metadata>
<g transform="translate(0.000000,512.000000) scale(0.100000,-0.100000)"
fill="#000000" stroke="none">
<path d="M2425 5104 c-61 -21 -115 -48 -115 -56 0 -5 -4 -8 -10 -8 -5 0 -96
-50 -202 -111 -106 -61 -211 -121 -233 -134 -53 -30 -529 -303 -785 -451 -113
-65 -218 -125 -235 -134 -16 -9 -52 -29 -80 -45 -27 -17 -62 -37 -76 -45 -15
-8 -82 -46 -149 -85 -107 -61 -210 -141 -210 -164 0 -4 30 -24 68 -46 37 -21
114 -67 172 -101 58 -34 156 -91 218 -128 l113 -66 30 34 c19 22 147 102 357
222 180 103 341 195 357 204 17 10 71 41 120 70 50 29 108 62 130 74 90 51
214 122 283 163 40 24 74 43 77 43 2 0 38 20 80 45 42 25 99 51 126 57 l49 11
0 334 0 333 -22 -1 c-13 0 -41 -7 -63 -15z"/>
<path d="M2543 4787 l2 -332 25 -3 c39 -5 79 -22 155 -68 39 -22 151 -88 250
-144 179 -103 454 -261 825 -475 107 -62 214 -124 238 -137 23 -13 59 -40 80
-60 l37 -36 88 54 c49 30 90 54 92 54 2 0 165 94 333 193 28 17 52 34 52 37 0
3 -21 26 -47 51 -41 39 -142 101 -438 269 -37 21 -325 187 -460 265 -55 32
-116 67 -135 78 -19 10 -107 61 -195 112 -88 51 -178 103 -200 115 -22 12 -81
46 -132 76 -51 30 -95 54 -99 54 -4 0 -15 6 -23 14 -9 7 -38 26 -66 41 -27 15
-95 53 -150 84 -111 64 -143 78 -197 85 l-37 6 2 -333z"/>
<path d="M2445 4409 c-29 -8 -475 -260 -748 -423 -43 -25 -79 -46 -81 -46 -2
0 -55 -30 -117 -67 -135 -78 -253 -147 -404 -233 -60 -34 -122 -76 -137 -93
l-28 -30 33 -21 c17 -11 41 -25 52 -32 141 -81 268 -156 302 -177 24 -15 45
-27 48 -27 2 0 35 -18 71 -41 l67 -40 26 24 c14 13 40 31 56 39 17 9 140 80
275 158 135 78 265 154 290 168 25 14 88 50 140 80 129 75 182 102 200 102 13
0 15 42 15 335 0 367 4 343 -60 324z"/>
<path d="M2540 4084 c0 -260 3 -334 13 -334 22 -1 247 -122 407 -220 25 -15
65 -39 90 -53 25 -13 112 -63 194 -111 82 -47 151 -86 152 -86 8 0 111 -65
131 -83 21 -19 22 -19 69 10 27 15 56 33 66 38 9 6 59 35 110 65 51 30 97 57
103 59 5 2 17 9 25 16 8 7 35 23 60 37 25 13 56 31 70 39 14 9 40 25 59 36
l33 21 -28 29 c-27 27 -141 98 -282 175 -31 17 -101 58 -155 90 -55 32 -100
58 -102 58 -1 0 -74 41 -161 91 -88 51 -179 103 -204 117 -25 14 -62 36 -82
49 -21 12 -40 23 -42 23 -3 0 -29 14 -58 31 -73 44 -114 67 -178 102 -30 16
-60 34 -66 39 -31 24 -163 87 -191 91 l-33 5 0 -334z"/>
<path d="M292 3802 c-16 -34 -17 -136 -20 -1222 -2 -1113 -1 -1189 15 -1238
l18 -52 103 60 c57 33 105 60 107 60 2 0 24 14 48 30 25 17 48 30 51 30 3 0
30 16 60 35 30 19 57 35 60 35 8 0 108 61 127 77 15 13 15 19 2 61 -11 39 -13
182 -11 877 2 746 5 879 24 937 3 12 -11 25 -53 49 -32 18 -89 51 -128 74 -38
23 -90 53 -115 67 -25 14 -96 55 -158 91 l-113 66 -17 -37z"/>
<path d="M4695 3814 c-22 -13 -101 -59 -175 -102 -74 -42 -136 -80 -138 -84
-2 -5 -8 -8 -12 -8 -5 0 -50 -25 -100 -55 -50 -30 -95 -55 -100 -55 -5 0 -2
-17 7 -37 18 -43 22 -209 24 -1198 2 -491 0 -575 -13 -606 l-15 -35 164 -95
c91 -52 215 -122 275 -156 61 -34 116 -67 123 -73 10 -8 17 0 32 37 17 46 18
101 16 1183 -1 624 -3 1156 -6 1181 -3 26 -14 65 -24 87 l-18 41 -40 -25z"/>
<path d="M905 3478 c-3 -7 -8 -33 -13 -58 -10 -58 -8 -1671 2 -1727 5 -26 13
-43 22 -43 7 0 58 27 113 60 55 33 103 60 107 60 4 0 15 6 23 14 9 7 36 25 61
38 57 32 150 85 170 98 8 5 29 17 47 26 46 23 58 40 47 67 -11 26 -11 1053 0
1109 6 33 4 38 -21 50 -15 8 -46 25 -68 38 -22 13 -51 30 -65 37 -14 8 -38 22
-55 32 -85 51 -257 151 -260 151 -2 0 -24 14 -48 30 -50 34 -56 35 -62 18z"/>
<path d="M4050 3434 c-41 -24 -82 -48 -90 -54 -8 -5 -55 -33 -105 -62 -49 -29
-98 -57 -107 -63 -9 -5 -55 -32 -102 -60 -78 -45 -83 -51 -75 -73 12 -31 12
-1084 0 -1115 -8 -21 -5 -26 27 -42 21 -11 48 -27 62 -36 14 -9 54 -32 90 -51
36 -20 137 -77 225 -127 88 -50 163 -91 168 -91 24 0 26 96 25 890 -2 826 -5
919 -33 926 -6 1 -44 -17 -85 -42z"/>
<path d="M1455 1917 c-27 -16 -71 -41 -96 -56 -25 -14 -92 -53 -149 -86 -57
-33 -115 -67 -129 -75 -14 -8 -50 -30 -79 -47 -29 -18 -57 -33 -62 -33 -38 0
42 -73 133 -121 34 -18 64 -35 67 -39 3 -4 20 -13 38 -21 17 -8 32 -17 32 -21
0 -5 4 -8 8 -8 5 0 111 -58 236 -130 125 -71 232 -130 237 -130 5 0 9 -4 9
-10 0 -5 4 -10 9 -10 4 0 46 -22 92 -49 46 -27 112 -64 147 -83 35 -18 68 -39
74 -45 6 -7 14 -13 19 -13 5 0 82 -42 171 -94 208 -119 226 -128 265 -133 l33
-5 0 336 c0 185 -3 335 -7 335 -25 -4 -52 8 -164 72 -68 40 -137 80 -154 89
-110 63 -142 81 -155 90 -8 5 -37 21 -65 36 -27 14 -62 35 -77 45 -14 11 -28
19 -30 19 -12 0 -306 175 -328 195 l-25 22 -50 -30z"/>
<path d="M3515 1926 c-22 -17 -745 -440 -917 -536 -10 -6 -27 -10 -38 -10 -20
0 -20 -6 -20 -336 l0 -335 36 5 c30 5 298 152 531 293 40 23 75 43 78 43 3 0
31 16 61 35 30 19 56 35 59 35 3 0 34 18 70 40 36 22 67 40 69 40 3 0 62 34
131 75 70 41 128 75 130 75 1 0 54 30 116 66 63 37 130 75 149 86 85 48 106
63 128 86 12 14 22 27 22 29 0 9 -26 29 -65 49 -53 28 -84 45 -304 174 -103
61 -192 110 -197 110 -5 -1 -22 -11 -39 -24z"/>
<path d="M4126 1573 c-26 -31 -119 -90 -361 -228 -49 -29 -130 -76 -180 -104
-49 -29 -108 -63 -130 -76 -22 -12 -80 -46 -130 -75 -49 -29 -108 -62 -130
-75 -22 -12 -86 -50 -143 -84 -57 -33 -105 -61 -107 -61 -2 0 -71 -40 -155
-89 -83 -49 -173 -95 -200 -101 l-49 -12 0 -329 0 -329 22 0 c38 0 110 26 167
60 30 18 73 43 95 55 22 13 139 80 260 150 121 70 234 135 250 145 17 9 134
77 260 150 127 73 250 144 275 158 25 14 62 36 82 49 21 12 41 23 45 23 3 0
14 6 22 14 9 8 32 22 51 32 19 11 156 89 304 174 242 140 356 219 356 249 0 5
-26 22 -57 40 -74 40 -100 56 -238 138 -11 7 -27 15 -35 19 -8 4 -53 30 -100
57 -47 27 -98 57 -115 67 l-30 17 -29 -34z"/>
<path d="M870 1577 c-14 -8 -81 -47 -150 -88 -69 -41 -132 -78 -140 -82 -16
-7 -30 -16 -167 -99 -82 -49 -83 -49 -67 -73 8 -13 32 -36 52 -52 31 -23 631
-372 782 -454 25 -13 47 -27 48 -31 2 -5 7 -8 11 -8 4 0 63 -32 132 -71 493
-284 713 -409 721 -409 4 0 8 -3 8 -8 0 -4 33 -25 73 -46 39 -21 99 -54 132
-73 59 -34 160 -73 190 -73 13 0 15 40 15 330 0 213 -4 330 -10 331 -48 6
-109 36 -317 156 -120 69 -234 134 -253 145 -35 19 -54 30 -180 103 -36 20
-81 46 -100 57 -50 29 -449 258 -485 278 -16 10 -67 39 -112 64 -45 26 -96 63
-115 82 -38 39 -35 38 -68 21z"/>
</g>
</svg>
